<svg width="85" height="85" viewBox="0 0 84 85" fill="none" xmlns="http://www.w3.org/2000/svg">
<path d="M42.0067 3.44722e-05C35.5217 -0.0083013 29.1235 1.49524 23.3178 4.39185L29.2755 16.2984C35.3301 13.2396 42.2712 12.4344 48.8626 14.0264C55.454 15.6184 61.2677 19.504 65.2682 24.9913C69.2687 30.4787 71.1963 37.2113 70.7076 43.9902C70.2189 50.769 67.3456 57.1539 62.5996 62.0076C57.8536 66.8612 51.543 69.8686 44.7918 70.494C38.0405 71.1194 31.287 69.3222 25.7341 65.4225C20.1812 61.5228 16.1894 55.7738 14.4698 49.1996C12.7502 42.6253 13.4143 35.6526 16.344 29.5233L4.24575 23.6559C0.250276 31.8733 -0.968559 41.1711 0.773411 50.1444C2.51538 59.1176 7.1235 67.2787 13.9015 73.3945C20.6795 79.5103 29.259 83.2486 38.3438 84.0443C47.4285 84.8401 56.5248 82.6502 64.2582 77.8055C71.9916 72.9608 77.9419 65.7246 81.21 57.1902C84.4781 48.6558 84.8865 39.287 82.3733 30.4994C79.8601 21.7118 74.5621 13.983 67.2796 8.48065C59.9972 2.97832 51.1261 0.00151949 42.0067 3.44722e-05Z" fill="#EB6837"/>
</svg>
