<svg width="64" height="64" viewBox="0 0 64 64" fill="none" xmlns="http://www.w3.org/2000/svg">
<rect width="64" height="64" rx="10" fill="white"/>
<path d="M32.0037 9.00002C28.4524 8.99547 24.9487 9.81683 21.7693 11.3992L25.0319 17.9036C28.3475 16.2326 32.1486 15.7928 35.7582 16.6625C39.3678 17.5322 42.5515 19.6549 44.7422 22.6525C46.933 25.6502 47.9886 29.3282 47.721 33.0314C47.4533 36.7346 45.8799 40.2226 43.2809 42.8742C40.6819 45.5257 37.226 47.1686 33.5289 47.5102C29.8318 47.8519 26.1334 46.8701 23.0925 44.7397C20.0516 42.6094 17.8657 39.4688 16.924 35.8773C15.9823 32.2858 16.346 28.4767 17.9503 25.1283L11.3251 21.923C9.13706 26.4121 8.4696 31.4914 9.42354 36.3934C10.3775 41.2954 12.901 45.7538 16.6127 49.0948C20.3245 52.4358 25.0229 54.4779 29.9979 54.9127C34.9729 55.3474 39.9542 54.1511 44.1892 51.5044C48.4241 48.8578 51.6827 44.9047 53.4723 40.2425C55.262 35.5802 55.4856 30.4621 54.1094 25.6616C52.7331 20.861 49.8318 16.6388 45.8437 13.6329C41.8557 10.627 36.9977 9.00083 32.0037 9.00002V9.00002Z" fill="#EB6837"/>
<path d="M32.0326 22.111C30.4708 22.1101 28.9313 22.4807 27.541 23.1921L31.9133 31.9241L23.1353 27.6789C22.1983 29.6084 21.9146 31.7903 22.3269 33.8952C22.7392 36.0001 23.8253 37.9137 25.421 39.347C27.0167 40.7803 29.0355 41.6554 31.1724 41.8403C33.3094 42.0251 35.4484 41.5097 37.2666 40.3717C39.0847 39.2337 40.4832 37.535 41.2509 35.5322C42.0186 33.5294 42.1137 31.3311 41.522 29.2695C40.9302 27.2078 39.6837 25.3947 37.9707 24.1038C36.2577 22.813 34.1711 22.1147 32.0262 22.1142L32.0326 22.111Z" fill="#3E3E3E"/>
</svg>
