<svg width="50" height="50" viewBox="0 0 50 50" fill="none" xmlns="http://www.w3.org/2000/svg">
<path d="M4.16675 28.2333V21.8167C4.16675 19.4905 5.09082 17.2596 6.73567 15.6148C8.38052 13.9699 10.6114 13.0458 12.9376 13.0458H28.2917C30.6179 13.0458 32.8488 13.9699 34.4937 15.6148C36.1385 17.2596 37.0626 19.4905 37.0626 21.8167V37.0667C37.0626 39.3928 36.1385 41.6237 34.4937 43.2686C32.8488 44.9134 30.6179 45.8375 28.2917 45.8375H12.9376C8.10425 45.8375 4.16675 41.9 4.16675 37.0667M11.4584 8.33333V4.6875M19.7917 8.33333V4.6875M28.1251 8.33333V4.6875M4.16675 25H36.4793M45.8334 27.4167C45.8334 32.25 41.8959 36.1875 37.0626 36.1875V18.6458C38.2144 18.6458 39.3549 18.8727 40.419 19.3135C41.4832 19.7542 42.4501 20.4003 43.2645 21.2148C44.0789 22.0292 44.725 22.9961 45.1658 24.0602C45.6066 25.1243 45.8334 26.2649 45.8334 27.4167Z" stroke="#EB6837" stroke-width="4" stroke-linecap="round" stroke-linejoin="round"/>
</svg>
