<svg width="50" height="50" viewBox="0 0 50 50" fill="none" xmlns="http://www.w3.org/2000/svg">
<path d="M4.16675 26.25C4.16675 17.9167 7.50008 14.5833 15.8334 14.5833H22.0834M35.4167 27.9125V34.1625C35.4167 42.4958 32.0834 45.8292 23.7501 45.8292H15.8334C7.50008 45.8292 4.16675 42.4958 4.16675 34.1625" stroke="#EB6837" stroke-width="4" stroke-linecap="round" stroke-linejoin="round"/>
<path d="M28.7499 27.9167C23.7499 27.9167 22.0833 26.25 22.0833 21.25V14.5833L35.4166 27.9167M24.1666 4.16666H32.4999M14.5833 10.4167C14.5833 6.95833 17.3749 4.16666 20.8333 4.16666H26.2916M45.8333 16.6667V29.5625C45.8333 32.7917 43.2083 35.4167 39.9791 35.4167M45.8333 16.6667H39.5833C34.8958 16.6667 33.3333 15.1042 33.3333 10.4167V4.16666L45.8333 16.6667Z" stroke="#EB6837" stroke-width="4" stroke-linecap="round" stroke-linejoin="round"/>
</svg>
