<svg width="192" height="192" viewBox="0 0 192 192" fill="none" xmlns="http://www.w3.org/2000/svg">
<rect width="192" height="192" rx="30" fill="white"/>
<path d="M96.0112 27.0001C85.3572 26.9864 74.846 29.4505 65.308 34.1977L75.0957 53.7109C85.0425 48.6979 96.4458 47.3785 107.275 49.9875C118.103 52.5965 127.654 58.9646 134.227 67.9576C140.799 76.9506 143.966 87.9846 143.163 99.0943C142.36 110.204 137.64 120.668 129.843 128.623C122.046 136.577 111.678 141.506 100.587 142.531C89.4954 143.556 78.4003 140.61 69.2776 134.219C60.1549 127.828 53.597 118.406 50.7719 107.632C47.9468 96.8574 49.0379 85.43 53.851 75.3849L33.9752 65.769C27.4112 79.2364 25.4088 94.4743 28.2706 109.18C31.1324 123.886 38.7029 137.261 49.8382 147.284C60.9736 157.307 75.0686 163.434 89.9936 164.738C104.919 166.042 119.863 162.453 132.568 154.513C145.272 146.573 155.048 134.714 160.417 120.727C165.786 106.741 166.457 91.3864 162.328 76.9847C158.199 62.583 149.495 49.9163 137.531 40.8987C125.567 31.8811 110.993 27.0025 96.0112 27.0001V27.0001Z" fill="#EB6837"/>
<path d="M96.0973 66.333C91.412 66.3302 86.7934 67.442 82.6226 69.5764L95.7395 95.7722L69.4055 83.0368C66.5945 88.8251 65.7432 95.3709 66.9802 101.686C68.2172 108 71.4753 113.741 76.2625 118.041C81.0497 122.341 87.106 124.966 93.5168 125.521C99.9276 126.075 106.345 124.529 111.799 121.115C117.254 117.701 121.449 112.605 123.752 106.597C126.055 100.588 126.341 93.9934 124.565 87.8084C122.79 81.6234 119.051 76.184 113.912 72.3115C108.773 68.4391 102.513 66.344 96.0782 66.3425L96.0973 66.333Z" fill="#3E3E3E"/>
</svg>
