<svg width="60" height="60" viewBox="0 0 60 60" fill="none" xmlns="http://www.w3.org/2000/svg">
<path d="M34.725 7.195L23 5.345C13.225 3.82 8.69998 7.12 7.14998 16.895L5.29998 28.62C4.29998 35.02 5.34998 39.17 8.97498 41.695C10.875 43.045 13.475 43.945 16.85 44.47L28.575 46.32C38.35 47.845 42.875 44.545 44.425 34.77L46.25 23.045C46.55 21.12 46.675 19.395 46.575 17.87C46.25 11.62 42.575 8.42 34.725 7.195ZM20.6 23.37C17.675 23.37 15.3 20.995 15.3 18.095C15.3 15.17 17.675 12.795 20.6 12.795C23.5 12.795 25.875 15.17 25.875 18.095C25.875 20.995 23.5 23.37 20.6 23.37Z" fill="#EB6837"/>
<path d="M51.2501 33.6725L47.5001 44.9475C44.3751 54.3475 39.3751 56.8475 29.9751 53.7225L18.7001 49.9725C15.1751 48.7975 12.6251 47.3475 10.9751 45.5225C12.5501 46.1475 14.3751 46.6225 16.4501 46.9475L28.2001 48.7975C29.8001 49.0475 31.3001 49.1725 32.7001 49.1725C40.9501 49.1725 45.3751 44.7225 46.9001 35.1475L48.7251 23.4225C48.9751 21.9725 49.0751 20.6975 49.0751 19.5225C52.8751 22.6475 53.4251 27.0975 51.2501 33.6725Z" fill="#EB6837"/>
</svg>
