<svg width="52" height="52" viewBox="0 0 52 52" fill="none" xmlns="http://www.w3.org/2000/svg">
<path d="M10.1594 48.3401C8.917 48.3401 7.86908 47.9133 7.01559 47.0599C6.1621 46.2064 5.73535 45.1584 5.73535 43.9161V20.3416C5.73535 19.6446 5.89443 18.9881 6.2126 18.372C6.53076 17.7558 6.97771 17.2205 7.55344 16.766L23.2496 5.00902C24.0043 4.4434 24.8697 4.16058 25.8458 4.16058C26.8219 4.16058 27.714 4.4434 28.522 5.00902L44.2182 16.766C44.7535 17.2205 45.1803 17.7558 45.4984 18.372C45.8166 18.9881 45.9757 19.6446 45.9757 20.3416V43.9161C45.9757 45.1584 45.5489 46.2064 44.6954 47.0599C43.842 47.9133 42.794 48.3401 41.5517 48.3401H10.1594ZM21.0073 30.5834V39.0679C21.0073 39.3911 21.1285 39.6739 21.3709 39.9163C21.6133 40.1587 21.8961 40.2799 22.2193 40.2799C22.5426 40.2799 22.8254 40.1587 23.0678 39.9163C23.3102 39.6739 23.4314 39.3911 23.4314 39.0679V30.5834C24.4414 30.5834 25.3 30.2299 26.007 29.5229C26.7141 28.8159 27.0676 27.9573 27.0676 26.9473V20.887C27.0676 20.5638 26.9464 20.281 26.704 20.0385C26.4615 19.7961 26.1787 19.6749 25.8555 19.6749C25.5323 19.6749 25.2495 19.7961 25.0071 20.0385C24.7647 20.281 24.6435 20.5638 24.6435 20.887V26.9473H23.4314V20.887C23.4314 20.5638 23.3102 20.281 23.0678 20.0385C22.8254 19.7961 22.5426 19.6749 22.2193 19.6749C21.8961 19.6749 21.6133 19.7961 21.3709 20.0385C21.1285 20.281 21.0073 20.5638 21.0073 20.887V26.9473H19.7952V20.887C19.7952 20.5638 19.674 20.281 19.4316 20.0385C19.1892 19.7961 18.9064 19.6749 18.5832 19.6749C18.26 19.6749 17.9771 19.7961 17.7347 20.0385C17.4923 20.281 17.3711 20.5638 17.3711 20.887V26.9473C17.3711 27.9573 17.7246 28.8159 18.4317 29.5229C19.1387 30.2299 19.9972 30.5834 21.0073 30.5834ZM31.9158 40.2799C32.239 40.2799 32.5218 40.1587 32.7642 39.9163C33.0067 39.6739 33.1279 39.3863 33.1279 39.0535V20.6446C33.1279 20.4183 33.037 20.2103 32.8552 20.0204C32.6733 19.8305 32.4612 19.7355 32.2188 19.7355C31.0472 19.7355 30.0977 20.2213 29.3705 21.1927C28.6432 22.1642 28.2796 23.2836 28.2796 24.5507V30.7047C28.2796 30.9875 28.3907 31.24 28.6129 31.4622C28.8352 31.6844 29.0877 31.7955 29.3705 31.7955H30.7037V39.0679C30.7037 39.3911 30.825 39.6739 31.0674 39.9163C31.3098 40.1587 31.5926 40.2799 31.9158 40.2799Z" fill="#EB6837"/>
</svg>
