<svg width="27" height="27" viewBox="0 0 27 27" fill="none" xmlns="http://www.w3.org/2000/svg">
<path d="M21.2309 9.74942C21.4544 9.74942 21.6572 9.84694 21.8175 10.0117C21.9668 10.1877 22.0421 10.4063 22.0203 10.6372C22.0203 10.7135 21.4228 18.2689 21.0816 21.4492C20.8679 23.4008 19.6098 24.5857 17.7226 24.6182C16.2715 24.6507 14.8531 24.6619 13.4565 24.6619C11.9738 24.6619 10.5238 24.6507 9.11631 24.6182C7.29236 24.5745 6.03314 23.3683 5.83036 21.4492C5.47931 18.2577 4.89276 10.7135 4.88186 10.6372C4.87096 10.4063 4.94509 10.1877 5.09555 10.0117C5.24382 9.84694 5.4575 9.74942 5.68209 9.74942H21.2309ZM15.7668 2.24194C16.7578 2.24194 17.6431 2.93359 17.8993 3.92006L18.0825 4.73838C18.2307 5.40537 18.8086 5.8773 19.4736 5.8773H22.7421C23.1782 5.8773 23.5412 6.23938 23.5412 6.70011V7.12608C23.5412 7.5756 23.1782 7.94889 22.7421 7.94889H4.16351C3.72633 7.94889 3.36328 7.5756 3.36328 7.12608V6.70011C3.36328 6.23938 3.72633 5.8773 4.16351 5.8773H7.43202C8.09597 5.8773 8.67379 5.40537 8.82315 4.7395L8.99432 3.97499C9.26033 2.93359 10.1358 2.24194 11.1377 2.24194H15.7668Z" fill="#D62D30"/>
</svg>
