<svg width="29" height="29" viewBox="0 0 29 29" fill="none" xmlns="http://www.w3.org/2000/svg">
<path d="M23.5056 22.2877C24.1607 22.2877 24.6935 22.8275 24.6935 23.4911C24.6935 24.1561 24.1607 24.6946 23.5056 24.6946H16.7909C16.1358 24.6946 15.603 24.1561 15.603 23.4911C15.603 22.8275 16.1358 22.2877 16.7909 22.2877H23.5056ZM18.849 4.34994L20.5835 5.7278C21.2948 6.284 21.7689 7.01717 21.9312 7.78826C22.1183 8.63646 21.9187 9.4695 21.3572 10.19L11.025 23.5514C10.5508 24.1582 9.85205 24.4995 9.10335 24.5121L4.98547 24.5627C4.76086 24.5627 4.57368 24.411 4.52377 24.1961L3.58788 20.1384C3.42566 19.3926 3.58788 18.6215 4.06206 18.0274L11.3869 8.54671C11.5117 8.39502 11.7363 8.371 11.886 8.48351L14.9682 10.9358C15.1679 11.1002 15.4424 11.1887 15.7294 11.1507C16.3408 11.0749 16.7526 10.5187 16.6902 9.92457C16.6528 9.62119 16.5031 9.36837 16.3034 9.17876C16.241 9.12819 13.3086 6.77699 13.3086 6.77699C13.1214 6.6253 13.084 6.3472 13.2337 6.15885L14.3942 4.65332C15.4673 3.27546 17.3391 3.14906 18.849 4.34994Z" fill="#E08E21"/>
</svg>
