<svg width="52" height="52" viewBox="0 0 52 52" fill="none" xmlns="http://www.w3.org/2000/svg">
<path d="M6.02346 33.5318C5.43838 33.5318 4.95235 33.3263 4.56537 32.9155C4.1784 32.5046 4.04812 32.0305 4.17454 31.4932C4.58541 28.4591 5.99975 25.9386 8.41756 23.9316C10.8354 21.9247 14.3831 20.9212 19.0607 20.9212C23.7383 20.9212 27.286 21.9247 29.7038 23.9316C32.1216 25.9386 33.5518 28.4591 33.9942 31.4932C34.089 32.0305 33.943 32.5046 33.556 32.9155C33.169 33.3263 32.683 33.5318 32.0979 33.5318H6.02346ZM36.9809 47.9438V33.0103C36.9809 29.6917 36.017 26.8314 34.089 24.4294C32.1611 22.0274 29.9329 20.3207 27.4045 19.3094L26.5037 14.7108C26.0613 14.2051 25.9898 13.6441 26.2893 13.0278C26.5887 12.4115 27.1027 12.1033 27.8312 12.1033H34.089V6.12991C34.089 5.66294 34.2607 5.26174 34.6039 4.92631C34.9471 4.59092 35.358 4.42322 35.8365 4.42322C36.315 4.42322 36.7202 4.59092 37.052 4.92631C37.3839 5.26174 37.5498 5.66294 37.5498 6.12991V12.1033H45.9411C46.4309 12.1033 46.8458 12.2969 47.1855 12.6841C47.5253 13.0712 47.6794 13.494 47.6478 13.9522L44.4714 45.0045C44.3766 45.8263 44.0131 46.5216 43.381 47.0905C42.7489 47.6594 41.9904 47.9438 41.1054 47.9438H36.9809ZM5.79225 40.643C5.25897 40.643 4.81652 40.4635 4.46491 40.1044C4.1133 39.7454 3.9375 39.3109 3.9375 38.8007C3.9375 38.2906 4.1133 37.8617 4.46491 37.5141C4.81652 37.1664 5.25897 36.9926 5.79225 36.9926H32.2817C32.7842 36.9926 33.211 37.1692 33.5622 37.5224C33.9134 37.8756 34.089 38.3072 34.089 38.8174C34.089 39.3275 33.9134 39.7593 33.5622 40.1128C33.211 40.4663 32.7842 40.643 32.2817 40.643H5.79225ZM5.79225 47.9438C5.25897 47.9438 4.81652 47.7643 4.46491 47.4053C4.1133 47.0462 3.9375 46.6117 3.9375 46.1016C3.9375 45.5915 4.1133 45.1626 4.46491 44.8149C4.81652 44.4672 5.25897 44.2934 5.79225 44.2934H32.2817C32.7842 44.2934 33.211 44.47 33.5622 44.8232C33.9134 45.1764 34.089 45.6081 34.089 46.1182C34.089 46.6283 33.9134 47.0602 33.5622 47.4138C33.211 47.7672 32.7842 47.9438 32.2817 47.9438H5.79225Z" fill="#EB6837"/>
</svg>
