<svg width="64" height="64" viewBox="0 0 64 64" fill="none" xmlns="http://www.w3.org/2000/svg">
<path d="M28.8747 59.1066H27.4332C26.8063 59.1066 26.2638 58.9179 25.8055 58.5403C25.3473 58.1628 25.1036 57.6745 25.0744 57.0755L24.0261 50.5889C23.3272 50.3268 22.5567 49.9565 21.7146 49.478C20.8724 48.9995 20.136 48.5181 19.5052 48.0336L13.4773 50.7855C12.9094 51.0476 12.3331 51.0764 11.7482 50.8718C11.1634 50.6673 10.7132 50.2891 10.3978 49.7371L5.68028 41.285C5.37451 40.775 5.29807 40.2217 5.45095 39.6249C5.60383 39.0281 5.92052 38.5549 6.401 38.2055L11.8392 34.1432C11.7956 33.852 11.7628 33.4698 11.741 32.9966C11.7191 32.5234 11.7082 32.1193 11.7082 31.7844C11.7082 31.4495 11.7191 31.0455 11.741 30.5723C11.7628 30.0991 11.7956 29.6951 11.8392 29.3602L6.401 25.4289C5.92052 25.0896 5.60383 24.619 5.45095 24.0171C5.29807 23.4153 5.37451 22.8594 5.68028 22.3494L10.3978 13.9628C10.7132 13.4108 11.1634 13.0326 11.7482 12.8281C12.3331 12.6236 12.9094 12.6305 13.4773 12.8489L19.3741 15.6008C19.9857 15.1203 20.7282 14.6289 21.6018 14.1266C22.4755 13.6242 23.2835 13.242 24.0261 12.98L25.0744 6.4934C25.1181 5.92555 25.3764 5.45598 25.8492 5.0847C26.322 4.71341 26.8719 4.52777 27.4987 4.52777H36.8682C37.4514 4.52777 37.9794 4.71341 38.4522 5.0847C38.925 5.45598 39.2051 5.92555 39.2925 6.4934L40.2753 12.98C41.0178 13.242 41.8369 13.6242 42.7323 14.1266C43.6278 14.6289 44.3594 15.1203 44.9273 15.6008L50.8241 12.8489C51.392 12.6305 51.9683 12.6236 52.5532 12.8281C53.138 13.0326 53.5882 13.4108 53.9036 13.9628L58.6211 22.2839C58.8832 22.8518 58.956 23.4311 58.8395 24.0219C58.723 24.6128 58.4318 25.0818 57.9659 25.4289L52.0035 29.8188H41.2058C40.7666 27.6916 39.6936 25.9149 37.9868 24.4887C36.2801 23.0625 34.3129 22.3494 32.0852 22.3494C29.4444 22.3494 27.2117 23.2698 25.387 25.1106C23.5625 26.9512 22.6502 29.1661 22.6502 31.7551C22.6502 33.8713 23.218 35.7266 24.3537 37.3209C25.4894 38.9153 26.9964 40.0401 28.8747 40.6953V59.1066Z" fill="#EB6837"/>
<path d="M45.416 33.1604C41.9421 33.1604 39.1179 35.9846 39.1179 39.4585C39.1179 42.8661 41.783 45.6241 45.2569 45.7434C45.363 45.7301 45.4691 45.7301 45.5486 45.7434H45.6414C47.2715 45.689 48.8164 45.0028 49.9497 43.83C51.083 42.6571 51.7157 41.0895 51.7141 39.4585C51.7141 35.9846 48.8899 33.1604 45.416 33.1604ZM52.1517 49.269C48.4524 46.8028 42.4194 46.8028 38.6936 49.269C37.0097 50.396 36.0815 51.9208 36.0815 53.5517C36.0815 55.1826 37.0097 56.6942 38.6803 57.8079C40.5366 59.0543 42.9763 59.6775 45.416 59.6775C47.8557 59.6775 50.2954 59.0543 52.1517 57.8079C53.8224 56.6809 54.7505 55.1694 54.7505 53.5252C54.7372 51.8943 53.8224 50.3828 52.1517 49.269Z" fill="#EB6837"/>
</svg>
