<svg width="60" height="60" viewBox="0 0 60 60" fill="none" xmlns="http://www.w3.org/2000/svg">
<path d="M42.4292 30.125C42.1847 30.125 41.9583 30.0833 41.75 30C41.5417 29.9167 41.3333 29.7708 41.125 29.5625L30.4375 18.875C30.2292 18.6667 30.0833 18.4556 30 18.2417C29.9167 18.0278 29.875 17.7986 29.875 17.5542C29.875 17.3097 29.9167 17.0833 30 16.875C30.0833 16.6667 30.2292 16.4583 30.4375 16.25L41.125 5.5625C41.3333 5.35417 41.5444 5.20833 41.7583 5.125C41.9722 5.04167 42.2014 5 42.4458 5C42.6903 5 42.9167 5.04167 43.125 5.125C43.3333 5.20833 43.5417 5.35417 43.75 5.5625L54.4375 16.25C54.6458 16.4583 54.7917 16.6694 54.875 16.8833C54.9583 17.0972 55 17.3264 55 17.5708C55 17.8153 54.9583 18.0417 54.875 18.25C54.7917 18.4583 54.6458 18.6667 54.4375 18.875L43.75 29.5625C43.5417 29.7708 43.3306 29.9167 43.1167 30C42.9028 30.0833 42.6736 30.125 42.4292 30.125ZM9.375 26.375C8.84375 26.375 8.39844 26.1953 8.03906 25.8359C7.67969 25.4766 7.5 25.0312 7.5 24.5V9.4375C7.5 8.90625 7.67969 8.46094 8.03906 8.10156C8.39844 7.74219 8.84375 7.5625 9.375 7.5625H24.4375C24.9688 7.5625 25.4141 7.74219 25.7734 8.10156C26.1328 8.46094 26.3125 8.90625 26.3125 9.4375V24.5C26.3125 25.0312 26.1328 25.4766 25.7734 25.8359C25.4141 26.1953 24.9688 26.375 24.4375 26.375H9.375ZM35.5 52.5C34.9688 52.5 34.5234 52.3203 34.1641 51.9609C33.8047 51.6016 33.625 51.1562 33.625 50.625V35.5625C33.625 35.0312 33.8047 34.5859 34.1641 34.2266C34.5234 33.8672 34.9688 33.6875 35.5 33.6875H50.5625C51.0938 33.6875 51.5391 33.8672 51.8984 34.2266C52.2578 34.5859 52.4375 35.0312 52.4375 35.5625V50.625C52.4375 51.1562 52.2578 51.6016 51.8984 51.9609C51.5391 52.3203 51.0938 52.5 50.5625 52.5H35.5ZM9.375 52.5C8.84375 52.5 8.39844 52.3203 8.03906 51.9609C7.67969 51.6016 7.5 51.1562 7.5 50.625V35.5625C7.5 35.0312 7.67969 34.5859 8.03906 34.2266C8.39844 33.8672 8.84375 33.6875 9.375 33.6875H24.4375C24.9688 33.6875 25.4141 33.8672 25.7734 34.2266C26.1328 34.5859 26.3125 35.0312 26.3125 35.5625V50.625C26.3125 51.1562 26.1328 51.6016 25.7734 51.9609C25.4141 52.3203 24.9688 52.5 24.4375 52.5H9.375Z" fill="#EB6837"/>
</svg>
