<svg width="37" height="37" viewBox="0 0 37 37" fill="none" xmlns="http://www.w3.org/2000/svg">
<path d="M18.3576 0.0720246C15.5057 0.0703459 12.6943 0.748711 10.1556 2.05111L18.1398 18.0351L2.11043 10.2643C0.399391 13.7962 -0.118774 17.7902 0.634182 21.6433C1.38714 25.4964 3.37033 28.9993 6.28425 31.623C9.19818 34.2466 12.8846 35.8486 16.7868 36.187C20.689 36.5254 24.5951 35.5818 27.9152 33.4987C31.2353 31.4156 33.7891 28.3062 35.1909 24.6399C36.5928 20.9737 36.7665 16.9498 35.6859 13.1758C34.6054 9.40187 32.3291 6.08285 29.201 3.71998C26.0729 1.35712 22.2627 0.0787202 18.3459 0.0778467L18.3576 0.0720246Z" fill="#ffffff"/>
</svg>
