<svg width="204" height="50" viewBox="0 0 204 50" fill="none" xmlns="http://www.w3.org/2000/svg">
<path d="M51.2621 37.0104L55.3161 16.1439H58.7889L63.6329 28.9172L68.4918 16.1439H71.9646L76.0186 37.0104H71.8155L69.5053 25.042L65.0488 36.8017H62.217L57.7754 25.042L55.4503 37.0104H51.2621ZM88.8382 22.1058H92.9519V37.0104H88.8233L88.6295 35.4603C88.242 36.0366 87.7452 36.5036 87.1391 36.8613C86.533 37.219 85.8225 37.3979 85.0077 37.3979C83.8948 37.3979 82.8565 37.1892 81.8927 36.7719C80.9288 36.3546 80.0793 35.7783 79.344 35.043C78.6087 34.3077 78.0324 33.4581 77.615 32.4943C77.2076 31.5205 77.0039 30.4772 77.0039 29.3643C77.0039 28.3011 77.1977 27.3075 77.5852 26.3834C77.9727 25.4593 78.5193 24.6445 79.2247 23.939C79.9302 23.2336 80.74 22.6821 81.6542 22.2846C82.5783 21.8872 83.5719 21.6885 84.6351 21.6885C85.5492 21.6885 86.369 21.8822 87.0944 22.2697C87.8297 22.6573 88.4705 23.1491 89.0171 23.7453L88.8382 22.1058ZM84.9034 33.4482C85.5791 33.4482 86.1901 33.2743 86.7366 32.9265C87.2831 32.5787 87.7154 32.1117 88.0333 31.5255C88.3513 30.9293 88.5103 30.2735 88.5103 29.5581C88.5103 28.8327 88.3513 28.1769 88.0333 27.5907C87.7154 27.0044 87.2831 26.5374 86.7366 26.1896C86.1901 25.8419 85.5791 25.668 84.9034 25.668C84.2178 25.668 83.5967 25.8419 83.0403 26.1896C82.4839 26.5374 82.0417 27.0094 81.7138 27.6056C81.3859 28.1918 81.2219 28.8427 81.2219 29.5581C81.2219 30.2735 81.3859 30.9293 81.7138 31.5255C82.0516 32.1117 82.4988 32.5787 83.0552 32.9265C83.6117 33.2743 84.2277 33.4482 84.9034 33.4482ZM106.611 14.6535H110.724V37.0104H106.611V35.4305C106.153 36.0068 105.587 36.4788 104.911 36.8464C104.236 37.2141 103.466 37.3979 102.601 37.3979C101.518 37.3979 100.505 37.1942 99.5606 36.7868C98.6167 36.3794 97.782 35.818 97.0567 35.1026C96.3413 34.3772 95.7799 33.5426 95.3725 32.5986C94.9651 31.6547 94.7614 30.6411 94.7614 29.5581C94.7614 28.475 94.9651 27.4615 95.3725 26.5175C95.7799 25.5736 96.3413 24.7439 97.0567 24.0285C97.782 23.3031 98.6167 22.7367 99.5606 22.3294C100.505 21.922 101.518 21.7183 102.601 21.7183C103.466 21.7183 104.236 21.9021 104.911 22.2697C105.587 22.6274 106.153 23.0994 106.611 23.6857V14.6535ZM102.661 33.4482C103.336 33.4482 103.948 33.2743 104.494 32.9265C105.041 32.5787 105.473 32.1117 105.791 31.5255C106.109 30.9293 106.268 30.2735 106.268 29.5581C106.268 28.8327 106.109 28.1769 105.791 27.5907C105.473 27.0044 105.041 26.5374 104.494 26.1896C103.948 25.8419 103.336 25.668 102.661 25.668C101.975 25.668 101.354 25.8419 100.798 26.1896C100.241 26.5374 99.7991 27.0094 99.4712 27.6056C99.1433 28.1918 98.9794 28.8427 98.9794 29.5581C98.9794 30.2735 99.1433 30.9293 99.4712 31.5255C99.8091 32.1117 100.256 32.5787 100.813 32.9265C101.369 33.2743 101.985 33.4482 102.661 33.4482ZM124.979 14.6535H129.093V37.0104H124.979V35.4305C124.522 36.0068 123.956 36.4788 123.28 36.8464C122.604 37.2141 121.834 37.3979 120.97 37.3979C119.887 37.3979 118.873 37.1942 117.929 36.7868C116.985 36.3794 116.151 35.818 115.425 35.1026C114.71 34.3772 114.149 33.5426 113.741 32.5986C113.334 31.6547 113.13 30.6411 113.13 29.5581C113.13 28.475 113.334 27.4615 113.741 26.5175C114.149 25.5736 114.71 24.7439 115.425 24.0285C116.151 23.3031 116.985 22.7367 117.929 22.3294C118.873 21.922 119.887 21.7183 120.97 21.7183C121.834 21.7183 122.604 21.9021 123.28 22.2697C123.956 22.6274 124.522 23.0994 124.979 23.6857V14.6535ZM121.03 33.4482C121.705 33.4482 122.316 33.2743 122.863 32.9265C123.409 32.5787 123.842 32.1117 124.16 31.5255C124.477 30.9293 124.636 30.2735 124.636 29.5581C124.636 28.8327 124.477 28.1769 124.16 27.5907C123.842 27.0044 123.409 26.5374 122.863 26.1896C122.316 25.8419 121.705 25.668 121.03 25.668C120.344 25.668 119.723 25.8419 119.166 26.1896C118.61 26.5374 118.168 27.0094 117.84 27.6056C117.512 28.1918 117.348 28.8427 117.348 29.5581C117.348 30.2735 117.512 30.9293 117.84 31.5255C118.178 32.1117 118.625 32.5787 119.181 32.9265C119.738 33.2743 120.354 33.4482 121.03 33.4482ZM132.684 22.1058H136.798V37.0104H132.684V22.1058ZM134.771 20.3918C134.175 20.3918 133.673 20.193 133.266 19.7956C132.858 19.3981 132.654 18.9063 132.654 18.32C132.654 17.7338 132.858 17.2419 133.266 16.8445C133.673 16.447 134.17 16.2483 134.756 16.2483C135.342 16.2483 135.834 16.447 136.232 16.8445C136.639 17.2419 136.843 17.7338 136.843 18.32C136.843 18.9063 136.644 19.3981 136.246 19.7956C135.859 20.193 135.367 20.3918 134.771 20.3918ZM140.399 37.0104V16.1439H152.769V20.2576H144.512V23.7751H151.338V27.8888H144.512V37.0104H140.399ZM160.435 37.3979C159.064 37.3979 157.812 37.0452 156.679 36.3397C155.556 35.6342 154.657 34.6902 153.981 33.5078C153.315 32.3154 152.982 30.9989 152.982 29.5581C152.982 28.4651 153.176 27.4466 153.564 26.5026C153.951 25.5487 154.483 24.7141 155.159 23.9987C155.844 23.2733 156.639 22.7069 157.543 22.2995C158.447 21.8922 159.411 21.6885 160.435 21.6885C161.806 21.6885 163.053 22.0412 164.176 22.7467C165.309 23.4522 166.208 24.4011 166.874 25.5935C167.549 26.7858 167.887 28.1074 167.887 29.5581C167.887 30.6411 167.693 31.6547 167.306 32.5986C166.918 33.5426 166.382 34.3772 165.696 35.1026C165.02 35.818 164.23 36.3794 163.326 36.7868C162.432 37.1942 161.468 37.3979 160.435 37.3979ZM160.435 33.2842C161.071 33.2842 161.642 33.1153 162.149 32.7775C162.656 32.4297 163.053 31.9726 163.341 31.4062C163.629 30.8399 163.773 30.2238 163.773 29.5581C163.773 28.8725 163.619 28.2465 163.311 27.6801C163.013 27.1038 162.611 26.6467 162.104 26.3089C161.597 25.971 161.041 25.8021 160.435 25.8021C159.809 25.8021 159.242 25.976 158.736 26.3238C158.229 26.6716 157.826 27.1286 157.528 27.695C157.24 28.2614 157.096 28.8824 157.096 29.5581C157.096 30.2636 157.245 30.8995 157.543 31.4659C157.851 32.0223 158.259 32.4645 158.765 32.7924C159.272 33.1203 159.829 33.2842 160.435 33.2842ZM176.824 37.3979C175.453 37.3979 174.201 37.0452 173.068 36.3397C171.945 35.6342 171.046 34.6902 170.37 33.5078C169.705 32.3154 169.372 30.9989 169.372 29.5581C169.372 28.4651 169.565 27.4466 169.953 26.5026C170.34 25.5487 170.872 24.7141 171.548 23.9987C172.233 23.2733 173.028 22.7069 173.932 22.2995C174.837 21.8922 175.801 21.6885 176.824 21.6885C178.195 21.6885 179.442 22.0412 180.565 22.7467C181.698 23.4522 182.597 24.4011 183.263 25.5935C183.938 26.7858 184.276 28.1074 184.276 29.5581C184.276 30.6411 184.082 31.6547 183.695 32.5986C183.307 33.5426 182.771 34.3772 182.085 35.1026C181.41 35.818 180.62 36.3794 179.715 36.7868C178.821 37.1942 177.857 37.3979 176.824 37.3979ZM176.824 33.2842C177.46 33.2842 178.031 33.1153 178.538 32.7775C179.045 32.4297 179.442 31.9726 179.73 31.4062C180.019 30.8399 180.163 30.2238 180.163 29.5581C180.163 28.8725 180.009 28.2465 179.701 27.6801C179.402 27.1038 179 26.6467 178.493 26.3089C177.987 25.971 177.43 25.8021 176.824 25.8021C176.198 25.8021 175.632 25.976 175.125 26.3238C174.618 26.6716 174.216 27.1286 173.918 27.695C173.629 28.2614 173.485 28.8824 173.485 29.5581C173.485 30.2636 173.634 30.8995 173.932 31.4659C174.24 32.0223 174.648 32.4645 175.155 32.7924C175.661 33.1203 176.218 33.2842 176.824 33.2842ZM197.61 14.6535H201.724V37.0104H197.61V35.4305C197.153 36.0068 196.587 36.4788 195.911 36.8464C195.235 37.2141 194.465 37.3979 193.601 37.3979C192.518 37.3979 191.504 37.1942 190.56 36.7868C189.616 36.3794 188.782 35.818 188.056 35.1026C187.341 34.3772 186.779 33.5426 186.372 32.5986C185.965 31.6547 185.761 30.6411 185.761 29.5581C185.761 28.475 185.965 27.4615 186.372 26.5175C186.779 25.5736 187.341 24.7439 188.056 24.0285C188.782 23.3031 189.616 22.7367 190.56 22.3294C191.504 21.922 192.518 21.7183 193.601 21.7183C194.465 21.7183 195.235 21.9021 195.911 22.2697C196.587 22.6274 197.153 23.0994 197.61 23.6857V14.6535ZM193.66 33.4482C194.336 33.4482 194.947 33.2743 195.494 32.9265C196.04 32.5787 196.472 32.1117 196.79 31.5255C197.108 30.9293 197.267 30.2735 197.267 29.5581C197.267 28.8327 197.108 28.1769 196.79 27.5907C196.472 27.0044 196.04 26.5374 195.494 26.1896C194.947 25.8419 194.336 25.668 193.66 25.668C192.975 25.668 192.354 25.8419 191.797 26.1896C191.241 26.5374 190.799 27.0094 190.471 27.6056C190.143 28.1918 189.979 28.8427 189.979 29.5581C189.979 30.2735 190.143 30.9293 190.471 31.5255C190.809 32.1117 191.256 32.5787 191.812 32.9265C192.369 33.2743 192.985 33.4482 193.66 33.4482Z" fill="#282828"/>
<path d="M23.5173 10C20.9673 9.99674 18.4515 10.5879 16.1687 11.7269L18.5113 16.4086C20.892 15.2059 23.6213 14.8893 26.213 15.5153C28.8048 16.1412 31.0908 17.6691 32.6638 19.8267C34.2368 21.9844 34.9948 24.6317 34.8026 27.2972C34.6105 29.9627 33.4807 32.4732 31.6145 34.3817C29.7484 36.2902 27.267 37.4727 24.6124 37.7186C21.9577 37.9645 19.3022 37.2579 17.1188 35.7245C14.9353 34.1911 13.3658 31.9306 12.6896 29.3455C12.0134 26.7605 12.2746 24.0188 13.4266 21.6087L8.66945 19.3016C7.09841 22.5328 6.61916 26.1887 7.30411 29.7171C7.98906 33.2454 9.801 36.4544 12.4661 38.8591C15.1313 41.2639 18.5048 42.7338 22.077 43.0467C25.6492 43.3596 29.2259 42.4985 32.2667 40.5936C35.3075 38.6886 37.6472 35.8433 38.9322 32.4875C40.2173 29.1317 40.3778 25.4479 39.3896 21.9925C38.4015 18.5372 36.3182 15.4982 33.4547 13.3346C30.5912 11.1711 27.1031 10.0006 23.5173 10Z" fill="#EB6837"/>
<path d="M23.538 19.437C22.4167 19.4363 21.3112 19.703 20.313 20.2151L23.4524 26.5001L17.1496 23.4446C16.4768 24.8334 16.273 26.4039 16.5691 27.9189C16.8652 29.434 17.645 30.8113 18.7907 31.843C19.9365 32.8746 21.386 33.5045 22.9204 33.6376C24.4548 33.7706 25.9907 33.3996 27.2962 32.5805C28.6016 31.7614 29.6058 30.5388 30.157 29.0972C30.7082 27.6556 30.7766 26.0734 30.3517 24.5894C29.9268 23.1055 29.0317 21.8004 27.8017 20.8714C26.5718 19.9423 25.0736 19.4396 23.5335 19.4392L23.538 19.437Z" fill="#3E3E3E"/>
</svg>
