<svg width="512" height="512" viewBox="0 0 512 512" fill="none" xmlns="http://www.w3.org/2000/svg">
<rect width="512" height="512" rx="80" fill="white"/>
<path d="M256.03 72.0002C227.619 71.9637 199.589 78.5347 174.155 91.1938L200.255 143.229C226.78 129.861 257.189 126.343 286.065 133.3C314.942 140.257 340.412 157.239 357.938 181.22C375.464 205.202 383.909 234.626 381.768 264.251C379.627 293.877 367.039 321.781 346.247 342.993C325.455 364.206 297.808 377.349 268.231 380.082C238.654 382.815 209.067 374.961 184.74 357.918C160.413 340.875 142.925 315.75 135.392 287.018C127.858 258.286 130.768 227.813 143.603 201.026L90.6005 175.384C73.0965 211.297 67.7568 251.931 75.3883 291.147C83.0198 330.363 103.208 366.03 132.902 392.758C162.596 419.486 200.183 435.824 239.983 439.301C279.783 442.779 319.634 433.208 353.513 412.036C387.393 390.863 413.461 359.238 427.779 321.94C442.096 284.642 443.885 243.697 432.875 205.292C421.865 166.888 398.654 133.11 366.75 109.063C334.846 85.0162 295.982 72.0066 256.03 72.0002V72.0002Z" fill="#EB6837"/>
<path d="M256.26 176.888C243.766 176.881 231.45 179.845 220.328 185.537L255.306 255.393L185.082 221.432C177.586 236.867 175.316 254.322 178.615 271.162C181.913 288.001 190.602 303.31 203.367 314.776C216.133 326.242 232.283 333.243 249.379 334.722C266.474 336.201 283.587 332.077 298.132 322.973C312.677 313.87 323.865 300.28 330.007 284.258C336.148 268.235 336.909 250.649 332.175 234.156C327.441 217.662 317.469 203.157 303.765 192.831C290.061 182.504 273.369 176.917 256.209 176.913L256.26 176.888Z" fill="#3E3E3E"/>
</svg>
