<svg width="92" height="100" viewBox="0 0 92 100" fill="none" xmlns="http://www.w3.org/2000/svg">
<path d="M83.5501 19.25L53.8501 2.1C49.0001 -0.7 43.0001 -0.7 38.1001 2.1L8.45012 19.25C6.05898 20.6364 4.07479 22.6276 2.69686 25.0236C1.31894 27.4196 0.595808 30.136 0.600117 32.9V67.1C0.600117 72.7 3.60011 77.9 8.45012 80.75L38.1501 97.9C43.0001 100.7 49.0001 100.7 53.9001 97.9L83.6001 80.75C85.9913 79.3636 87.9754 77.3724 89.3534 74.9764C90.7313 72.5804 91.4544 69.864 91.4501 67.1V32.9C91.4284 30.1354 90.6888 27.4239 89.304 25.031C87.9191 22.6382 85.9364 20.6461 83.5501 19.25ZM42.2501 28.75C42.2501 26.7 43.9501 25 46.0001 25C48.0501 25 49.7501 26.7 49.7501 28.75V55C49.7501 57.05 48.0501 58.75 46.0001 58.75C43.9501 58.75 42.2501 57.05 42.2501 55V28.75ZM50.6001 73.15C50.3501 73.75 50.0001 74.3 49.5501 74.8C48.8506 75.4996 47.9576 75.9735 46.9861 76.1607C46.0147 76.3479 45.0095 76.2396 44.1001 75.85C43.4501 75.6 42.9501 75.25 42.4501 74.8C42.0001 74.3 41.6501 73.75 41.3501 73.15C41.1093 72.5459 40.9903 71.9002 41.0001 71.25C41.0001 69.95 41.5001 68.65 42.4501 67.7C42.9501 67.25 43.4501 66.9 44.1001 66.65C45.9501 65.85 48.1501 66.3 49.5501 67.7C50.0001 68.2 50.3501 68.7 50.6001 69.35C50.8501 69.95 51.0001 70.6 51.0001 71.25C51.0001 71.9 50.8501 72.55 50.6001 73.15Z" fill="#EB6837"/>
</svg>
