<svg width="101" height="101" viewBox="0 0 101 101" fill="none" xmlns="http://www.w3.org/2000/svg">
<path d="M50.4998 0.916626C23.1794 0.916626 0.916504 23.1795 0.916504 50.5C0.916504 77.8204 23.1794 100.083 50.4998 100.083C77.8203 100.083 100.083 77.8204 100.083 50.5C100.083 23.1795 77.8203 0.916626 50.4998 0.916626ZM67.1598 61.9041C68.5977 63.342 68.5977 65.722 67.1598 67.16C66.4161 67.9037 65.474 68.2508 64.5319 68.2508C63.5898 68.2508 62.6478 67.9037 61.904 67.16L50.4998 55.7558L39.0957 67.16C38.3519 67.9037 37.4098 68.2508 36.4678 68.2508C35.5257 68.2508 34.5836 67.9037 33.8398 67.16C33.1482 66.4601 32.7604 65.5159 32.7604 64.532C32.7604 63.5482 33.1482 62.6039 33.8398 61.9041L45.244 50.5L33.8398 39.0958C33.1482 38.396 32.7604 37.4518 32.7604 36.4679C32.7604 35.484 33.1482 34.5398 33.8398 33.84C35.2778 32.402 37.6577 32.402 39.0957 33.84L50.4998 45.2441L61.904 33.84C63.3419 32.402 65.7219 32.402 67.1598 33.84C68.5977 35.2779 68.5977 37.6579 67.1598 39.0958L55.7557 50.5L67.1598 61.9041Z" fill="#EB6837"/>
</svg>
