<svg width="26" height="26" viewBox="0 0 26 26" fill="none" xmlns="http://www.w3.org/2000/svg">
<path d="M20.6927 9.57103V7.98221C20.6927 4.55037 19.8666 0 12.7105 0C5.5545 0 4.72832 4.55037 4.72832 7.98221V9.57103C1.16937 10.0159 0 11.8208 0 16.2568V18.6209C0 23.8322 1.58882 25.4211 6.80013 25.4211H18.6209C23.8322 25.4211 25.4211 23.8322 25.4211 18.6209V16.2568C25.4211 11.8208 24.2517 10.0159 20.6927 9.57103ZM12.7105 21.2774C10.5879 21.2774 8.87195 19.5488 8.87195 17.4388C8.87195 15.3162 10.6006 13.6003 12.7105 13.6003C13.7275 13.6036 14.702 14.0091 15.4211 14.7283C16.1403 15.4474 16.5458 16.4218 16.5491 17.4388C16.5491 19.5615 14.8332 21.2774 12.7105 21.2774ZM6.80013 9.45663H6.50779V7.98221C6.50779 4.25803 7.56276 1.77947 12.7105 1.77947C17.8583 1.77947 18.9133 4.25803 18.9133 7.98221V9.46934H6.80013V9.45663Z" fill="white"/>
</svg>
