<svg width="37" height="37" viewBox="0 0 37 37" fill="none" xmlns="http://www.w3.org/2000/svg">
<path d="M16.5731 34.5333H15.7252C15.3565 34.5333 15.0373 34.4223 14.7678 34.2002C14.4982 33.9781 14.3548 33.6909 14.3377 33.3385L13.721 29.5229C13.3099 29.3688 12.8567 29.1509 12.3613 28.8694C11.8659 28.588 11.4327 28.3048 11.0617 28.0198L7.51583 29.6385C7.1818 29.7927 6.84278 29.8096 6.49875 29.6893C6.15473 29.569 5.88994 29.3466 5.70437 29.0219L2.92937 24.05C2.74951 23.75 2.70455 23.4245 2.79448 23.0735C2.88441 22.7224 3.07069 22.4441 3.35333 22.2385L6.55229 19.849C6.5266 19.6777 6.50732 19.4528 6.49448 19.1745C6.48163 18.8961 6.47521 18.6585 6.47521 18.4615C6.47521 18.2645 6.48163 18.0268 6.49448 17.7484C6.50732 17.4701 6.5266 17.2324 6.55229 17.0354L3.35333 14.7229C3.07069 14.5233 2.88441 14.2465 2.79448 13.8925C2.70455 13.5384 2.74951 13.2114 2.92937 12.9115L5.70437 7.97813C5.88994 7.65346 6.15473 7.43097 6.49875 7.31067C6.84278 7.19037 7.1818 7.19445 7.51583 7.32292L10.9846 8.94167C11.3443 8.65903 11.7811 8.36997 12.295 8.07449C12.8089 7.779 13.2842 7.55417 13.721 7.40001L14.3377 3.58438C14.3634 3.25035 14.5153 2.97414 14.7934 2.75574C15.0716 2.53733 15.395 2.42813 15.7637 2.42813H21.2752C21.6183 2.42813 21.9288 2.53733 22.207 2.75574C22.4851 2.97414 22.6499 3.25035 22.7012 3.58438L23.2794 7.40001C23.7162 7.55417 24.198 7.779 24.7247 8.07449C25.2514 8.36997 25.6818 8.65903 26.0158 8.94167L29.4846 7.32292C29.8186 7.19445 30.1576 7.19037 30.5017 7.31067C30.8457 7.43097 31.1105 7.65346 31.296 7.97813L34.071 12.8729C34.2252 13.207 34.268 13.5477 34.1995 13.8953C34.131 14.2428 33.9597 14.5187 33.6856 14.7229L30.1783 17.3052H23.8267C23.5684 16.0539 22.9372 15.0088 21.9332 14.1698C20.9293 13.3309 19.7721 12.9115 18.4617 12.9115C16.9083 12.9115 15.5949 13.4529 14.5216 14.5356C13.4483 15.6184 12.9117 16.9213 12.9117 18.4442C12.9117 19.6891 13.2457 20.7804 13.9137 21.7182C14.5818 22.6561 15.4683 23.3177 16.5731 23.7031V34.5333Z" fill="white"/>
<path d="M26.3034 19.2708C24.2599 19.2708 22.5986 20.9321 22.5986 22.9756C22.5986 24.9801 24.1663 26.6024 26.2098 26.6726C26.2722 26.6648 26.3346 26.6648 26.3814 26.6726H26.436C27.3948 26.6406 28.3036 26.237 28.9703 25.5471C29.6369 24.8571 30.0091 23.935 30.0081 22.9756C30.0081 20.9321 28.3468 19.2708 26.3034 19.2708ZM30.2655 28.7465C28.0895 27.2958 24.5407 27.2958 22.349 28.7465C21.3585 29.4095 20.8125 30.3064 20.8125 31.2657C20.8125 32.2251 21.3585 33.1142 22.3412 33.7694C23.4331 34.5025 24.8683 34.8691 26.3034 34.8691C27.7385 34.8691 29.1736 34.5025 30.2655 33.7694C31.2483 33.1064 31.7942 32.2173 31.7942 31.2501C31.7864 30.2908 31.2483 29.4017 30.2655 28.7465Z" fill="white"/>
</svg>
