<svg width="43" height="43" viewBox="0 0 43 43" fill="none" xmlns="http://www.w3.org/2000/svg">
<path d="M11.6458 39.4166V26.875M11.6458 8.95831V3.58331M31.3541 39.4166V34.0416M31.3541 16.125V3.58331M17.0208 12.5416V23.2916C17.0208 25.2625 16.1249 26.875 13.4374 26.875H9.85409C7.16659 26.875 6.27075 25.2625 6.27075 23.2916V12.5416C6.27075 10.5708 7.16659 8.95831 9.85409 8.95831H13.4374C16.1249 8.95831 17.0208 10.5708 17.0208 12.5416ZM36.7291 19.7083V30.4583C36.7291 32.4291 35.8333 34.0416 33.1458 34.0416H29.5624C26.8749 34.0416 25.9791 32.4291 25.9791 30.4583V19.7083C25.9791 17.7375 26.8749 16.125 29.5624 16.125H33.1458C35.8333 16.125 36.7291 17.7375 36.7291 19.7083Z" stroke="#EB6837" stroke-width="3.13" stroke-miterlimit="10" stroke-linecap="round" stroke-linejoin="round"/>
</svg>
