<svg width="52" height="52" viewBox="0 0 52 52" fill="none" xmlns="http://www.w3.org/2000/svg">
<path d="M30.1036 19.6322C30.1036 19.4455 30.1622 19.2684 30.2793 19.1011C30.3964 18.9338 30.5387 18.7922 30.706 18.6763C31.7029 18.2902 32.7417 17.9968 33.8223 17.796C34.9029 17.5952 36.0037 17.4948 37.1248 17.4948C37.8506 17.4948 38.5621 17.5367 39.2594 17.6203C39.9566 17.704 40.6486 17.8295 41.3352 17.9968C41.5443 18.0637 41.7324 18.1892 41.8997 18.3733C42.0671 18.5573 42.1507 18.7665 42.1507 19.0007C42.1507 19.3526 42.0216 19.6414 41.7633 19.867C41.505 20.0926 41.2159 20.1385 40.8958 20.0046C40.2935 19.8708 39.6827 19.7537 39.0637 19.6533C38.4446 19.5529 37.8004 19.5027 37.1311 19.5027C36.1492 19.5027 35.201 19.6031 34.2864 19.8039C33.3719 20.0046 32.4796 20.2724 31.6095 20.607C31.1745 20.7743 30.8147 20.7638 30.5303 20.5755C30.2458 20.3871 30.1036 20.0727 30.1036 19.6322ZM30.1036 30.6857C30.1036 30.4921 30.1622 30.3032 30.2793 30.1192C30.3964 29.9351 30.5387 29.7852 30.706 29.6693C31.7029 29.2832 32.7417 28.9981 33.8223 28.8141C34.9029 28.63 36.0037 28.538 37.1248 28.538C37.8506 28.538 38.5621 28.5798 39.2594 28.6635C39.9566 28.7472 40.6486 28.8726 41.3352 29.04C41.5443 29.1069 41.7324 29.2324 41.8997 29.4164C42.0671 29.6005 42.1507 29.8096 42.1507 30.0439C42.1507 30.3958 42.0216 30.6845 41.7633 30.9102C41.505 31.1358 41.2159 31.1817 40.8958 31.0478C40.2935 30.914 39.6827 30.7968 39.0637 30.6964C38.4446 30.596 37.8004 30.5458 37.1311 30.5458C36.1492 30.5458 35.201 30.6379 34.2864 30.8219C33.3719 31.006 32.4796 31.2653 31.6095 31.6C31.1745 31.7673 30.8147 31.7703 30.5303 31.609C30.2458 31.4476 30.1036 31.1398 30.1036 30.6857ZM30.1036 25.1538C30.1036 24.9671 30.1622 24.79 30.2793 24.6227C30.3964 24.4554 30.5387 24.3138 30.706 24.1979C31.7029 23.8118 32.7417 23.5184 33.8223 23.3176C34.9029 23.1168 36.0037 23.0164 37.1248 23.0164C37.8506 23.0164 38.5621 23.0582 39.2594 23.1419C39.9566 23.2256 40.6486 23.3511 41.3352 23.5184C41.5443 23.5853 41.7324 23.7108 41.8997 23.8948C42.0671 24.0789 42.1507 24.2881 42.1507 24.5223C42.1507 24.8742 42.0216 25.1629 41.7633 25.3886C41.505 25.6142 41.2159 25.6601 40.8958 25.5262C40.2935 25.3924 39.6827 25.2752 39.0637 25.1749C38.4446 25.0745 37.8004 25.0243 37.1311 25.0243C36.1492 25.0243 35.201 25.1247 34.2864 25.3254C33.3719 25.5262 32.4796 25.7939 31.6095 26.1286C31.1745 26.2959 30.8147 26.2854 30.5303 26.0971C30.2458 25.9087 30.1036 25.5943 30.1036 25.1538ZM27.8448 37.6235C29.5186 36.8204 31.1461 36.2013 32.7274 35.7663C34.3088 35.3312 36.0075 35.1137 37.8235 35.1137C39.102 35.1137 40.4273 35.2141 41.7994 35.4149C43.1714 35.6157 44.3594 35.9001 45.3633 36.2682V14.5783C44.2255 13.9794 43.0041 13.5461 41.699 13.2783C40.3939 13.0106 39.102 12.8768 37.8235 12.8768C36.0075 12.8768 34.2668 13.1528 32.6015 13.705C30.9363 14.2572 29.3507 15.0142 27.8448 15.9761V37.6235ZM26.199 41.9906C25.9911 41.9906 25.8023 41.9661 25.6327 41.9172C25.463 41.8683 25.2969 41.7924 25.1342 41.6894C23.5279 40.652 21.8047 39.8489 19.9646 39.28C18.1244 38.7111 16.2493 38.4267 14.3391 38.4267C13.0359 38.4267 11.7736 38.594 10.5522 38.9286C9.33074 39.2633 8.11766 39.6648 6.91295 40.1333C6.15332 40.5014 5.40288 40.4596 4.66165 40.0078C3.92042 39.5561 3.5498 38.8784 3.5498 37.9749V14.0156C3.5498 13.5241 3.66693 13.0692 3.90118 12.6509C4.13543 12.2326 4.4868 11.9063 4.9553 11.6721C6.44054 10.9693 7.96525 10.4506 9.52943 10.116C11.0936 9.78133 12.6985 9.61401 14.344 9.61401C16.4509 9.61401 18.5167 9.90683 20.5412 10.4924C22.5658 11.0781 24.4482 11.9398 26.1883 13.0776C27.9285 11.9398 29.7776 11.0781 31.7358 10.4924C33.6939 9.90683 35.7266 9.61401 37.8339 9.61401C39.4833 9.61401 41.0836 9.7897 42.6349 10.1411C44.1861 10.4924 45.6979 11.0028 47.1704 11.6721C47.6389 11.9063 47.9986 12.2326 48.2496 12.6509C48.5006 13.0692 48.626 13.5293 48.626 14.0313V37.9749C48.626 38.9119 48.2387 39.623 47.464 40.1082C46.6893 40.5935 45.9389 40.6018 45.2127 40.1333C44.0415 39.6314 42.8483 39.2214 41.6331 38.9035C40.4179 38.5856 39.1596 38.4267 37.8581 38.4267C35.9832 38.4267 34.1384 38.7111 32.3237 39.28C30.509 39.8489 28.8153 40.652 27.2424 41.6894C27.0829 41.7924 26.9211 41.8683 26.757 41.9172C26.5929 41.9661 26.4069 41.9906 26.199 41.9906Z" fill="#EB6837"/>
</svg>
