<svg width="47" height="47" viewBox="0 0 47 47" fill="none" xmlns="http://www.w3.org/2000/svg">
<path d="M39.8909 19.8372H34.2799C29.6785 19.8372 25.9313 16.09 25.9313 11.4886V5.87757C25.9313 4.80972 25.0576 3.93604 23.9898 3.93604H15.7577C9.77777 3.93604 4.94336 7.8191 4.94336 14.7504V31.9523C4.94336 38.8836 9.77777 42.7667 15.7577 42.7667H31.0181C36.9981 42.7667 41.8325 38.8836 41.8325 31.9523V21.7787C41.8325 20.7109 40.9588 19.8372 39.8909 19.8372ZM23.9315 30.6904L20.0485 34.5734C19.9126 34.7093 19.7378 34.8258 19.5631 34.8841C19.3926 34.9624 19.2071 35.0029 19.0195 35.0029C18.8318 35.0029 18.6464 34.9624 18.4758 34.8841C18.3152 34.8169 18.1699 34.7178 18.0487 34.5928C18.0293 34.5734 18.0099 34.5734 18.0099 34.554L14.1268 30.6709C13.856 30.3969 13.7041 30.0272 13.7041 29.6419C13.7041 29.2567 13.856 28.8869 14.1268 28.6129C14.6899 28.0499 15.6218 28.0499 16.1848 28.6129L17.5633 30.0302V21.8952C17.5633 21.0992 18.2234 20.4391 19.0195 20.4391C19.8155 20.4391 20.4756 21.0992 20.4756 21.8952V30.0302L21.8735 28.6323C22.4366 28.0693 23.3685 28.0693 23.9315 28.6323C24.4946 29.1954 24.4946 30.1273 23.9315 30.6904Z" fill="white"/>
<path d="M33.93 17.1579C35.7745 17.1773 38.3373 17.1773 40.5312 17.1773C41.6379 17.1773 42.2204 15.8765 41.4438 15.0999C38.648 12.2846 33.6388 7.21724 30.7653 4.34377C29.9693 3.54775 28.5908 4.09137 28.5908 5.19805V11.974C28.5908 14.8086 30.9983 17.1579 33.93 17.1579Z" fill="white"/>
</svg>
