<svg width="22" height="19" viewBox="0 0 22 19" fill="none" xmlns="http://www.w3.org/2000/svg">
<path fill-rule="evenodd" clip-rule="evenodd" d="M15.7689 0C17.1844 0 18.5461 0.559444 19.5478 1.56328C20.5506 2.565 21.1111 3.91611 21.1111 5.33056V13.6694C21.1111 16.6144 18.715 19 15.7689 19H5.34111C2.39506 19 0 16.6144 0 13.6694V5.33056C0 2.38556 2.3845 0 5.34111 0H15.7689ZM17.4484 6.90334L17.5328 6.81889C17.7851 6.51278 17.7851 6.06945 17.5212 5.76333C17.3745 5.60606 17.1729 5.51 16.9628 5.48889C16.7411 5.47728 16.53 5.55222 16.3706 5.7L11.6111 9.5C10.9989 10.0077 10.1217 10.0077 9.50002 9.5L4.75002 5.7C4.42174 5.45722 3.96786 5.48889 3.69447 5.77389C3.40947 6.05889 3.3778 6.51278 3.61952 6.82945L3.7578 6.96667L8.56058 10.7139C9.15169 11.1783 9.86841 11.4317 10.6189 11.4317C11.3673 11.4317 12.0967 11.1783 12.6867 10.7139L17.4484 6.90334Z" fill="black"/>
</svg>
