<svg width="51" height="51" viewBox="0 0 51 51" fill="none" xmlns="http://www.w3.org/2000/svg">
<path d="M35.4903 4.22504H29.9977C23.2377 4.22504 19.0127 8.45005 19.0127 15.2101V23.7657H32.2159C33.082 23.7657 33.8003 24.484 33.8003 25.3501C33.8003 26.2162 33.082 26.9345 32.2159 26.9345H19.0127V35.4902C19.0127 42.2502 23.2377 46.4752 29.9977 46.4752H35.4691C42.2292 46.4752 46.4542 42.2502 46.4542 35.4902V15.2101C46.4753 8.45005 42.2503 4.22504 35.4903 4.22504Z" fill="white"/>
<path d="M9.63467 23.7656L14.0076 19.3927C14.3244 19.0758 14.4723 18.6744 14.4723 18.2731C14.4723 17.8717 14.3244 17.4492 14.0076 17.1534C13.7094 16.8588 13.3071 16.6935 12.8879 16.6935C12.4687 16.6935 12.0665 16.8588 11.7683 17.1534L4.6914 24.2303C4.07878 24.843 4.07878 25.857 4.6914 26.4696L11.7683 33.5465C12.3809 34.1591 13.3949 34.1591 14.0076 33.5465C14.6202 32.9339 14.6202 31.9199 14.0076 31.3072L9.63467 26.9344H19.0142V23.7656H9.63467Z" fill="white"/>
</svg>
