<svg width="84" height="85" viewBox="0 0 84 85" fill="none" xmlns="http://www.w3.org/2000/svg">
<path d="M42.0067 3.44722e-05C35.5217 -0.0083013 29.1235 1.49524 23.3178 4.39185L29.2755 16.2984C35.3301 13.2396 42.2712 12.4344 48.8626 14.0264C55.454 15.6184 61.2677 19.504 65.2682 24.9913C69.2687 30.4787 71.1963 37.2113 70.7076 43.9902C70.2189 50.769 67.3456 57.1539 62.5996 62.0076C57.8536 66.8612 51.543 69.8686 44.7918 70.494C38.0405 71.1194 31.287 69.3222 25.7341 65.4225C20.1812 61.5228 16.1894 55.7738 14.4698 49.1996C12.7502 42.6253 13.4143 35.6526 16.344 29.5233L4.24575 23.6559C0.250276 31.8733 -0.968559 41.1711 0.773411 50.1444C2.51538 59.1176 7.1235 67.2787 13.9015 73.3945C20.6795 79.5103 29.259 83.2486 38.3438 84.0443C47.4285 84.8401 56.5248 82.6502 64.2582 77.8055C71.9917 72.9608 77.9419 65.7246 81.21 57.1902C84.4781 48.6558 84.8865 39.287 82.3733 30.4994C79.8602 21.7118 74.5621 13.983 67.2796 8.48065C59.9972 2.97832 51.1261 0.00151949 42.0067 3.44722e-05V3.44722e-05Z" fill="#EB6837"/>
<path d="M42.0599 24C39.2081 23.9983 36.3967 24.6767 33.858 25.9791L41.8422 41.9631L25.8128 34.1923C24.1018 37.7241 23.5836 41.7182 24.3366 45.5713C25.0895 49.4244 27.0727 52.9273 29.9866 55.5509C32.9006 58.1746 36.587 59.7766 40.4892 60.115C44.3914 60.4534 48.2975 59.5098 51.6176 57.4267C54.9377 55.3436 57.4915 52.2341 58.8933 48.5679C60.2952 44.9017 60.4689 40.8777 59.3883 37.1038C58.3078 33.3298 56.0315 30.0108 52.9034 27.648C49.7753 25.2851 45.9651 24.0067 42.0483 24.0058L42.0599 24Z" fill="white"/>
</svg>
